name D:\+GitRepos+\flash-running\Simulations\OCP\..\results\predictiveSim\predictiveSim_11-Nov-2020_kinematics.mot
datacolumns 32
datarows 8
range 0.58987220 0.63116325
endheader
time	pelvis_tilt	pelvis_list	pelvis_rotation	pelvis_tx	pelvis_ty	pelvis_tz	hip_flexion_l	hip_adduction_l	hip_rotation_l	hip_flexion_r	hip_adduction_r	hip_rotation_r	knee_angle_l	knee_angle_r	ankle_angle_l	ankle_angle_r	subtalar_angle_l	subtalar_angle_r	lumbar_extension	lumbar_bending	lumbar_rotation	arm_flex_l	arm_add_l	arm_rot_l	arm_flex_r	arm_add_r	arm_rot_r	elbow_flex_l	elbow_flex_r	pro_sup_l	pro_sup_r	
          0.58987220	        -11.60564293	          0.27286003	          1.66083789	          2.06455268	          0.98737482	         -0.00793027	         24.93789594	          6.36047939	         -0.21039528	         38.36144101	          7.46362538	          9.42610153	        -15.93342985	        -61.56000366	         -9.65449006	         -6.61369105	          8.47235070	          3.85674677	         -2.04459277	         -1.61038229	          0.44925308	         -0.64284168	          3.09534063	        -11.92908198	         -9.78578462	        -10.85776816	         -2.24292258	        149.03977631	         66.28422171	         86.51662706	         86.51662706	
          0.59577092	        -11.32248037	          0.24302136	          1.71293845	          2.08447546	          0.98381205	         -0.00809285	         24.76875908	          6.48678578	         -0.20075554	         38.61219786	          7.22361408	          9.51845751	        -16.41943065	        -60.83598386	         -9.58222328	         -6.26306221	          7.89328083	          3.81514782	         -2.29583692	         -1.57288121	          0.68033616	          1.40739951	          4.19942530	        -11.22771353	         -8.86438230	        -10.81402761	         -2.60634901	        149.89062068	         62.03920351	         86.51662706	         86.51662706	
          0.60166964	        -11.03380704	          0.22383735	          1.75807205	          2.10447988	          0.97992932	         -0.00825424	         24.51781762	          6.61521908	         -0.13742972	         38.92785699	          6.93351491	          9.57152245	        -17.36749692	        -59.99712892	         -8.91978364	         -5.90340439	          7.17737392	          3.76556255	         -2.53179129	         -1.54571568	          0.89306637	          3.47164237	          5.32781517	        -10.53981125	         -7.83990198	        -10.75608839	         -2.95755145	        150.66488584	         57.58794943	         86.51662706	         86.51662706	
          0.60756836	        -10.72910898	          0.21261473	          1.80694136	          2.12453113	          0.97577025	         -0.00840458	         24.25709754	          6.74723537	         -0.07207839	         39.29016605	          6.61725137	          9.64615355	        -19.26708682	        -59.06332762	         -7.79436516	         -5.55368694	          6.53655478	          3.70916607	         -2.77263813	         -1.52960103	          1.08026943	          5.56136036	          6.47315119	         -9.86426907	         -6.69772624	        -10.68008545	         -3.30115274	        151.35906298	         52.90533950	         86.51662706	         86.51662706	
          0.61346708	        -10.41835188	          0.21025053	          1.85018213	          2.14463553	          0.97143457	         -0.00856600	         23.90578910	          6.91681523	          0.04832414	         39.68748872	          6.25511229	          9.69457542	        -21.68749005	        -58.01547672	         -6.15502862	         -5.21788822	          6.02506333	          3.65285894	         -3.00436996	         -1.52004220	          1.23913169	          7.66101846	          7.63051427	         -9.21816556	         -5.41077096	        -10.58965550	         -3.62303631	        151.95955871	         47.92378115	         86.51662706	         86.51662706	
          0.61936581	        -10.11922769	          0.20697140	          1.87384239	          2.16482340	          0.96702001	         -0.00874860	         23.33899401	          7.12819670	          0.28286930	         40.10972002	          5.82721779	          9.62856776	        -23.85804323	        -56.81889584	         -4.10267897	         -4.88059979	          5.47111815	          3.60526786	         -3.19855634	         -1.50057939	          1.36791933	          9.74475096	          8.79235932	         -8.62456204	         -3.95147809	        -10.48890104	         -3.90511542	        152.45441495	         42.56484520	         86.51662706	         86.51662706	
          0.62526453	         -9.83152012	          0.19464383	          1.88203653	          2.18507073	          0.96257376	         -0.00892971	         22.58980713	          7.35563827	          0.59801187	         40.54209165	          5.34877015	          9.44754473	        -25.74304464	        -55.47301464	         -2.01201640	         -4.54198477	          4.85986698	          3.57322379	         -3.35915970	         -1.46582363	          1.46344316	         11.81491519	          9.94522352	         -8.08875500	         -2.30160830	        -10.37334364	         -4.15038067	        152.84230077	         36.78701037	         86.51662706	         86.51662706	
          0.63116325	         -9.55154468	          0.17385279	          1.88157154	          2.20533910	          0.95813282	         -0.00909440	         21.71373920	          7.58262485	          0.94700287	         40.97234237	          4.83547861	          9.17939161	        -27.40720344	        -53.99111385	         -0.00143052	         -4.21071820	          4.23327891	          3.56317181	         -3.49780345	         -1.41889196	          1.52116127	         13.87835233	         11.07514312	         -7.61520990	         -0.44677849	        -10.23939755	         -4.36673030	        153.12524645	         30.56573116	         86.51662706	         86.51662706	
